<svg width="160" height="43" viewBox="0 0 160 43" fill="none" xmlns="http://www.w3.org/2000/svg">
<path d="M20.7917 15.3305L41.9293 0.527344H0.216797L0.457909 42.5168L20.7917 42.5974V15.3305Z" fill="#D7282F"/>
<path d="M41.8879 20.6133H33.248V31.3022H41.8879V20.6133Z" fill="#D7282F"/>
<path d="M53.8633 0.484375H64.3517C65.7582 0.484375 67.1647 0.605382 68.4908 0.887732C69.8169 1.17008 71.0225 1.61377 72.0673 2.21881C73.1121 2.82384 73.956 3.63056 74.5588 4.63895C75.2017 5.64734 75.483 6.85741 75.483 8.30949C75.483 10.2859 74.8803 11.8994 73.6345 13.1498C72.3888 14.4002 70.701 15.2472 68.5711 15.6909L76.6484 27.832H70.1786L63.1863 16.2556H59.2481V27.832H53.8633V0.484375ZM63.6283 12.2624C64.3919 12.2624 65.1554 12.2221 65.9189 12.101C66.6824 11.98 67.3656 11.8187 67.9684 11.5363C68.5711 11.254 69.0936 10.8506 69.4954 10.3263C69.8973 9.80191 70.0982 9.11621 70.0982 8.30949C70.0982 7.54312 69.8973 6.93808 69.5356 6.45405C69.1739 5.97003 68.6917 5.607 68.1291 5.32465C67.5665 5.0423 66.9235 4.84063 66.2002 4.75995C65.4769 4.63895 64.7535 4.59861 64.0704 4.59861H59.2079V12.3027H63.6283V12.2624Z" fill="#3E3E3E"/>
<path d="M94.8538 0.484375H99.3947L112.134 27.832H106.106L103.333 21.5799H90.5137L87.8213 27.832H81.9141L94.8538 0.484375ZM101.525 17.385L96.9836 6.25237L92.3623 17.385H101.525Z" fill="#3E3E3E"/>
<path d="M117.395 0.404297H136.402V4.67988H122.619V12.1823H135.599V16.2965H122.619V27.8325H117.395V0.404297Z" fill="#3E3E3E"/>
<path d="M146.772 0.484375H141.428V27.8723H146.772V0.484375Z" fill="#3E3E3E"/>
<path d="M56.194 40.1322L53.8633 35.6953H54.5063L56.4352 39.4869L58.4042 35.6953H59.0472L56.6763 40.1322V42.4717H56.194V40.1322Z" fill="#3E3E3E"/>
<path d="M60.0898 39.125C60.0898 38.399 60.2104 37.794 60.4515 37.2293C60.6926 36.7049 61.0543 36.2612 61.4963 35.9788C61.9384 35.6965 62.4608 35.5352 63.0636 35.5352C63.6663 35.5352 64.1888 35.6965 64.6308 35.9788C65.0728 36.2612 65.4345 36.7049 65.6756 37.2293C65.9167 37.7536 66.0373 38.399 66.0373 39.125C66.0373 39.8107 65.9167 40.4158 65.6756 40.8998C65.4345 41.4242 65.0728 41.7872 64.6308 42.0695C64.1888 42.3519 63.6663 42.5132 63.0636 42.5132C62.4608 42.5132 61.9384 42.3519 61.4963 42.0695C61.0543 41.7872 60.6926 41.3838 60.4515 40.8998C60.2104 40.4158 60.0898 39.8107 60.0898 39.125ZM65.5149 39.125C65.5149 38.157 65.314 37.3906 64.8719 36.8662C64.4299 36.3419 63.8271 36.0595 63.0636 36.0595C62.3 36.0595 61.6973 36.3419 61.2552 36.8662C60.8132 37.3906 60.6123 38.157 60.6123 39.125C60.6123 40.0124 60.8132 40.7385 61.2552 41.2628C61.6973 41.7872 62.3 42.0292 63.0636 42.0292C63.8271 42.0292 64.4299 41.7872 64.8719 41.2628C65.314 40.7385 65.5149 40.0527 65.5149 39.125Z" fill="#3E3E3E"/>
<path d="M67.2843 35.6562H67.8067V39.8915C67.8067 40.5772 67.9675 41.1016 68.3291 41.4646C68.6908 41.8276 69.173 42.0293 69.7758 42.0293C70.4188 42.0293 70.901 41.8276 71.2225 41.4646C71.5842 41.1016 71.7449 40.5772 71.7449 39.8915V35.6562H72.2673V39.8915C72.2673 40.4159 72.1468 40.8999 71.9458 41.3032C71.7449 41.7066 71.4234 42.0293 71.0618 42.231C70.7001 42.4326 70.258 42.5537 69.7758 42.5537C69.2936 42.5537 68.8516 42.4326 68.4497 42.231C68.088 42.0293 67.7666 41.7066 67.5656 41.3032C67.3647 40.8999 67.2441 40.4159 67.2441 39.8915V35.6562H67.2843Z" fill="#3E3E3E"/>
<path d="M75.8441 39.5297H74.1162V42.4339H73.5938V35.6172H76.3264C76.9291 35.6172 77.4516 35.7785 77.8132 36.1416C78.1749 36.5046 78.3758 36.9886 78.3758 37.5936C78.3758 38.0373 78.2553 38.4003 77.974 38.723C77.6927 39.0457 77.3712 39.2474 76.9693 39.3281C77.3712 39.4087 77.6525 39.5297 77.8534 39.7718C78.0543 40.0138 78.1749 40.3365 78.2151 40.8205L78.416 42.4339H77.8936L77.7328 40.9012C77.6927 40.4171 77.4917 40.0541 77.2104 39.8524C76.8488 39.6508 76.4067 39.5297 75.8441 39.5297ZM76.246 36.1819H74.1162V39.0457H76.246C76.7282 39.0457 77.1301 38.9247 77.4114 38.6827C77.6927 38.4407 77.8132 38.0777 77.8132 37.634C77.8132 37.1903 77.6927 36.8273 77.4114 36.5449C77.0899 36.3029 76.7282 36.1819 76.246 36.1819Z" fill="#3E3E3E"/>
<path d="M84.285 35.6562C84.8476 35.6562 85.37 35.8176 85.812 36.0999C86.2541 36.3823 86.5756 36.7857 86.8167 37.3504C87.0578 37.8747 87.1784 38.4797 87.1784 39.2058C87.1784 39.8512 87.0578 40.4159 86.8569 40.9402C86.6158 41.4243 86.3345 41.8276 85.9326 42.0696C85.5308 42.352 85.0485 42.473 84.5261 42.473H81.9141V35.6562H84.285ZM82.3963 36.1806V41.989H84.4056C85.1289 41.989 85.6513 41.7469 86.0532 41.2629C86.455 40.7789 86.6559 40.0932 86.6559 39.2058C86.6559 38.2377 86.455 37.5117 86.013 36.9873C85.5709 36.463 85.0083 36.1806 84.2046 36.1806H82.3963Z" fill="#3E3E3E"/>
<path d="M88.4219 35.6562H88.9443V42.473H88.4219V35.6562Z" fill="#3E3E3E"/>
<path d="M90.1895 39.045C90.1895 38.3593 90.31 37.714 90.5511 37.2299C90.7922 36.7056 91.1539 36.3022 91.5959 36.0199C92.038 35.7375 92.5604 35.5762 93.1632 35.5762C93.6856 35.5762 94.1276 35.6568 94.5295 35.8585C94.9313 36.0602 95.2528 36.3425 95.4939 36.6652C95.735 36.9879 95.8556 37.4316 95.8958 37.8753H95.3332C95.293 37.3106 95.0921 36.9072 94.6902 36.5846C94.2884 36.2619 93.766 36.1005 93.123 36.1005C92.3595 36.1005 91.7567 36.3425 91.3548 36.8669C90.9128 37.3913 90.7119 38.1173 90.7119 39.045C90.7119 39.9728 90.9128 40.7391 91.3146 41.2635C91.7165 41.7879 92.3193 42.0299 93.0426 42.0299C93.6454 42.0299 94.1678 41.7879 94.5295 41.3442C94.9313 40.9005 95.1323 40.2551 95.1724 39.4887H93.0024V39.0047H95.8154V42.4736H95.3734L95.3332 40.7795C95.1323 41.3442 94.8108 41.7475 94.4089 42.0702C94.0071 42.3929 93.5248 42.5542 93.0024 42.5542C92.4398 42.5542 91.9174 42.3929 91.4754 42.1105C91.0333 41.8282 90.7119 41.4248 90.4707 40.9005C90.31 40.3358 90.1895 39.7307 90.1895 39.045Z" fill="#3E3E3E"/>
<path d="M97.2637 35.6562H97.7861V42.473H97.2637V35.6562Z" fill="#3E3E3E"/>
<path d="M103.612 35.6562V36.1806H101.522V42.473H101V36.1806H98.9102V35.6562H103.612Z" fill="#3E3E3E"/>
<path d="M110.243 42.473H109.641L108.917 40.4965H105.863L105.14 42.473H104.537L107.109 35.6562H107.712L110.243 42.473ZM107.35 36.342L106.024 39.9722H108.716L107.35 36.342Z" fill="#3E3E3E"/>
<path d="M115.306 42.473H111.328V35.6562H111.851V41.9486H115.266V42.473H115.306Z" fill="#3E3E3E"/>
<path d="M121.535 39.3677L120.731 39.2467C120.088 39.166 119.566 38.9644 119.204 38.682C118.842 38.3997 118.682 37.9963 118.682 37.5123C118.682 36.9073 118.883 36.4232 119.325 36.1005C119.767 35.7375 120.329 35.5762 121.053 35.5762C121.776 35.5762 122.339 35.7779 122.781 36.1409C123.223 36.5039 123.464 37.0283 123.544 37.6736H123.022C122.941 37.1493 122.74 36.7459 122.419 36.5039C122.097 36.2619 121.655 36.1409 121.093 36.1409C120.53 36.1409 120.088 36.2619 119.767 36.5039C119.445 36.7459 119.244 37.1089 119.244 37.5123C119.244 37.8753 119.365 38.1173 119.646 38.319C119.887 38.5207 120.289 38.6417 120.811 38.7224L121.575 38.8434C122.981 39.0047 123.665 39.6501 123.665 40.6988C123.665 41.2635 123.464 41.7072 123.022 42.0702C122.58 42.3929 122.017 42.5946 121.334 42.5946C120.57 42.5946 119.927 42.3929 119.485 42.0299C119.043 41.6669 118.762 41.1425 118.682 40.5375H119.244C119.325 41.0618 119.566 41.4652 119.887 41.7072C120.249 41.9492 120.731 42.0702 121.334 42.0702C121.896 42.0702 122.298 41.9492 122.66 41.7072C122.981 41.4652 123.142 41.1425 123.142 40.7391C123.142 39.9324 122.58 39.4887 121.535 39.3677Z" fill="#3E3E3E"/>
<path d="M124.912 35.6562H125.435V38.6814H129.614V35.6562H130.136V42.473H129.614V39.2058H125.435V42.473H124.912V35.6562Z" fill="#3E3E3E"/>
<path d="M135.96 35.6562V36.1806H131.981V38.7218H135.638V39.2461H131.981V41.989H135.96V42.473H131.459V35.6562H135.96Z" fill="#3E3E3E"/>
<path d="M141.144 42.473H137.166V35.6562H137.688V41.9486H141.104V42.473H141.144Z" fill="#3E3E3E"/>
<path d="M146.77 35.6562V36.1806H142.792V38.9638H146.449V39.4478H142.792V42.473H142.27V35.6562H146.77Z" fill="#3E3E3E"/>
</svg>
