<svg width="30" height="30" viewBox="0 0 30 30" fill="none" xmlns="http://www.w3.org/2000/svg">
<circle cx="15" cy="15" r="14.5" stroke="#D7282F"/>
<path d="M14.6875 18.5625C14.7031 17.0469 15.5156 16.3281 16.2812 15.6719C16.9375 15.1094 17.5469 14.5938 17.5469 13.6094C17.5469 12.2812 16.6719 11.5312 15.1875 11.5312C13.8594 11.5312 12.9688 12.3906 12.9062 13.7188H11.6875C11.8281 11.7969 13.2344 10.4688 15.1562 10.4688C17.3281 10.4688 18.7656 11.7188 18.7656 13.6094C18.7656 15 17.9062 15.6719 17.125 16.3594C16.4688 16.9375 15.875 17.5312 15.8438 18.5625H14.6875ZM15.9531 21H14.5469V19.6719H15.9531V21Z" fill="#D7282F"/>
</svg>
