<svg width="486" height="416" viewBox="0 0 486 416" fill="none" xmlns="http://www.w3.org/2000/svg">
<g clip-path="url(#clip0_458_1067)">
<path d="M485.515 226.859C488.034 193.665 480.253 158.982 469.828 128.083C454.352 82.1697 424.306 35.1023 373.72 24.232C344.543 17.9654 314.857 24.6787 289.849 40.3761C265.797 55.4779 247.033 74.9849 217.471 78.7572C187.561 82.5792 156.857 81.0405 126.786 81.0405C49.4803 81.0405 -13.2678 161.699 2.41923 245.721C18.1063 329.742 92.0488 387.99 154.797 387.99C211.178 387.99 257.557 354.399 311.109 345.377C337.667 340.91 364.338 346.196 390.611 339.496C421.154 331.703 449.884 313.114 466.8 286.199C478.329 267.858 483.951 247.644 485.515 226.859Z" fill="#D7282F"/>
<path opacity="0.7" d="M485.515 226.859C488.034 193.665 480.253 158.982 469.828 128.083C454.352 82.1697 424.306 35.1023 373.72 24.232C344.543 17.9654 314.857 24.6787 289.849 40.3761C265.797 55.4779 247.033 74.9849 217.471 78.7572C187.561 82.5792 156.857 81.0405 126.786 81.0405C49.4803 81.0405 -13.2678 161.699 2.41923 245.721C18.1063 329.742 92.0488 387.99 154.797 387.99C211.178 387.99 257.557 354.399 311.109 345.377C337.667 340.91 364.338 346.196 390.611 339.496C421.154 331.703 449.884 313.114 466.8 286.199C478.329 267.858 483.951 247.644 485.515 226.859Z" fill="white"/>
<path d="M243.869 415.999C377.217 415.999 485.317 412.988 485.317 409.274C485.317 405.559 377.217 402.548 243.869 402.548C110.52 402.548 2.41992 405.559 2.41992 409.274C2.41992 412.988 110.52 415.999 243.869 415.999Z" fill="#263238"/>
<path d="M366.187 403.142H343.848V0.618164L366.187 26.5902V403.142Z" stroke="#263238" stroke-width="1.23919" stroke-linecap="round" stroke-linejoin="round"/>
<path d="M344.059 308.36H365.976L344.059 287.178H365.976L344.059 308.36Z" stroke="#263238" stroke-width="1.23919" stroke-linecap="round" stroke-linejoin="round"/>
<path d="M344.059 286.646H365.976L344.059 265.464H365.976L344.059 286.646Z" stroke="#263238" stroke-width="1.23919" stroke-linecap="round" stroke-linejoin="round"/>
<path d="M344.059 351.606H365.976L344.059 330.437H365.976L344.059 351.606Z" stroke="#263238" stroke-width="1.23919" stroke-linecap="round" stroke-linejoin="round"/>
<path d="M344.059 329.891H365.976L344.059 308.721H365.976L344.059 329.891Z" stroke="#263238" stroke-width="1.23919" stroke-linecap="round" stroke-linejoin="round"/>
<path d="M344.059 264.929H365.976L344.059 243.747H365.976L344.059 264.929Z" stroke="#263238" stroke-width="1.23919" stroke-linecap="round" stroke-linejoin="round"/>
<path d="M344.059 243.213H365.976L344.059 222.031H365.976L344.059 243.213Z" stroke="#263238" stroke-width="1.23919" stroke-linecap="round" stroke-linejoin="round"/>
<path d="M344.059 221.498H365.976L344.059 200.315H365.976L344.059 221.498Z" stroke="#263238" stroke-width="1.23919" stroke-linecap="round" stroke-linejoin="round"/>
<path d="M344.059 199.783H365.976L344.059 178.601H365.976L344.059 199.783Z" stroke="#263238" stroke-width="1.23919" stroke-linecap="round" stroke-linejoin="round"/>
<path d="M344.059 178.067H365.976L344.059 156.885H365.976L344.059 178.067Z" stroke="#263238" stroke-width="1.23919" stroke-linecap="round" stroke-linejoin="round"/>
<path d="M344.059 156.351H365.976L344.059 135.169H365.976L344.059 156.351Z" stroke="#263238" stroke-width="1.23919" stroke-linecap="round" stroke-linejoin="round"/>
<path d="M344.059 134.635H365.976L344.059 113.453H365.976L344.059 134.635Z" stroke="#263238" stroke-width="1.23919" stroke-linecap="round" stroke-linejoin="round"/>
<path d="M344.059 112.92H365.976L344.059 91.7383H365.976L344.059 112.92Z" stroke="#263238" stroke-width="1.23919" stroke-linecap="round" stroke-linejoin="round"/>
<path d="M344.059 91.2027H365.976L344.059 70.0205H365.976L344.059 91.2027Z" stroke="#263238" stroke-width="1.23919" stroke-linecap="round" stroke-linejoin="round"/>
<path d="M344.059 69.4869H365.976L344.059 48.3047H365.976L344.059 69.4869Z" stroke="#263238" stroke-width="1.23919" stroke-linecap="round" stroke-linejoin="round"/>
<path d="M344.059 47.772H365.976L344.059 26.5898H365.976L344.059 47.772Z" stroke="#263238" stroke-width="1.23919" stroke-linecap="round" stroke-linejoin="round"/>
<path d="M469.887 48.3565L459.077 41.5439H381.846L372.414 48.3565H469.887Z" stroke="#263238" stroke-width="1.23919" stroke-linecap="round" stroke-linejoin="round"/>
<path d="M471.677 47.7734H283.035V52.737H471.677V47.7734Z" fill="#263238" stroke="#263238" stroke-width="1.23919" stroke-linecap="round" stroke-linejoin="round"/>
<path d="M459.08 41.5431L343.848 0.618164L381.849 41.5431" stroke="#263238" stroke-width="1.23919" stroke-linecap="round" stroke-linejoin="round"/>
<path d="M343.847 0.618164L283.035 47.7724" stroke="#263238" stroke-width="1.23919" stroke-linecap="round" stroke-linejoin="round"/>
<path d="M382.321 58.3193H335.781V88.101H382.321V58.3193Z" fill="#263238" stroke="#263238" stroke-width="1.23919" stroke-linecap="round" stroke-linejoin="round"/>
<path d="M382.321 373.958H335.781V403.74H382.321V373.958Z" fill="#263238" stroke="#263238" stroke-width="1.23919" stroke-linecap="round" stroke-linejoin="round"/>
<path d="M372.615 64.5225H345.473V73.2088H372.615V64.5225Z" fill="white" stroke="#263238" stroke-width="1.23919" stroke-linecap="round" stroke-linejoin="round"/>
<path d="M471.676 52.7373V106.245" stroke="#263238" stroke-width="1.23919" stroke-linecap="round" stroke-linejoin="round"/>
<path d="M478.765 124.508H464.977V140.131H478.765V124.508Z" fill="#263238" stroke="#263238" stroke-width="1.23919" stroke-linecap="round" stroke-linejoin="round"/>
<path d="M464.977 124.509L471.877 105.226L478.765 124.509" stroke="#263238" stroke-width="1.23919" stroke-linecap="round" stroke-linejoin="round"/>
<path d="M287.901 370.16V342.537H206.549V370.16C206.549 379.169 203.509 387.917 197.911 394.99L194.35 399.495H300.113L296.551 394.99C290.954 387.929 287.913 379.181 287.913 370.16H287.901Z" fill="white" stroke="#263238" stroke-width="1.36311" stroke-linecap="round" stroke-linejoin="round"/>
<g style="mix-blend-mode:multiply">
<path d="M201.549 389.507H292.891C289.639 383.613 287.902 376.962 287.902 370.162V342.539H206.55V370.162C206.55 376.962 204.813 383.613 201.561 389.507H201.549Z" fill="#D7282F"/>
</g>
<path d="M287.904 346.693H206.553V358.358H287.904V346.693Z" fill="#263238" stroke="#263238" stroke-width="1.36311" stroke-linecap="round" stroke-linejoin="round"/>
<path d="M399.188 106.047H95.2638C88.8963 106.047 83.7344 111.208 83.7344 117.575V339.721C83.7344 346.088 88.8963 351.249 95.2638 351.249H399.188C405.555 351.249 410.717 346.088 410.717 339.721V117.575C410.717 111.208 405.555 106.047 399.188 106.047Z" fill="#263238" stroke="#263238" stroke-width="1.36311" stroke-linecap="round" stroke-linejoin="round"/>
<path d="M83.7344 313.14H410.717V339.72C410.717 346.086 405.554 351.248 399.188 351.248H95.2762C88.9096 351.248 83.7468 346.086 83.7468 339.72V313.14H83.7344Z" fill="white" stroke="#263238" stroke-width="1.36311" stroke-linecap="round" stroke-linejoin="round"/>
<path d="M394.272 121.311H100.189V294.54H394.272V121.311Z" fill="#D7282F" stroke="#263238" stroke-width="1.36311" stroke-linecap="round" stroke-linejoin="round"/>
<path d="M253.264 332.202C253.264 328.876 250.559 326.171 247.233 326.171C243.907 326.171 241.201 328.876 241.201 332.202C241.201 335.527 243.907 338.232 247.233 338.232C250.559 338.232 253.264 335.527 253.264 332.202Z" fill="#263238" stroke="#263238" stroke-width="1.36311" stroke-linecap="round" stroke-linejoin="round"/>
<path d="M300.138 399.497H194.35V404.423H300.138V399.497Z" fill="white" stroke="#263238" stroke-width="1.36311" stroke-linecap="round" stroke-linejoin="round"/>
<path d="M342.933 164.714C350.118 157.529 352.811 147.54 351.012 138.27L332.57 156.71C330.385 158.894 326.848 158.894 324.664 156.71L309.325 141.372C307.14 139.188 307.14 135.652 309.325 133.468L327.767 115.028C318.484 113.229 308.505 115.909 301.32 123.106C292.806 131.619 290.609 144.04 294.705 154.576L247.073 201.035L242.481 196.444L249.977 188.949C250.784 188.142 250.784 186.851 249.977 186.045L244.181 180.25C243.375 179.443 242.084 179.443 241.277 180.25L238.373 183.154L232.093 176.875L234.513 174.455C235.581 173.388 235.581 171.65 234.513 170.583L182.538 118.614C177.325 113.402 168.886 113.402 163.686 118.614L158.374 123.938C153.162 129.15 153.162 137.588 158.374 142.787L210.35 194.756C211.417 195.823 213.155 195.823 214.222 194.756L216.642 192.336L222.922 198.615L220.018 201.519C219.211 202.326 219.211 203.616 220.018 204.423L225.814 210.218C226.62 211.024 227.911 211.024 228.718 210.218L236.214 202.723L240.731 207.239L201.24 245.757C190.704 241.662 178.268 243.859 169.767 252.371C162.581 259.556 159.888 269.545 161.688 278.815L180.13 260.375C182.314 258.191 185.851 258.191 188.036 260.375L203.375 275.712C205.559 277.896 205.559 281.433 203.375 283.617L184.933 302.057C194.216 303.856 204.194 301.176 211.38 293.979C219.894 285.466 222.09 273.045 217.995 262.509L257.485 223.992L311.323 277.822C309.796 281.768 310.615 286.421 313.805 289.611L326.799 302.603L342.386 287.017L329.393 274.025C326.203 270.836 321.561 270.017 317.602 271.543L263.84 217.787L311.472 171.328C322.008 175.423 334.444 173.226 342.945 164.714H342.933Z" fill="#263238" stroke="#263238" stroke-width="1.36311" stroke-linecap="round" stroke-linejoin="round"/>
<path d="M214.652 255.896L308.142 164.715C318.678 168.809 331.114 166.613 339.615 158.101C346.801 150.916 349.494 140.926 347.694 131.657L329.252 150.097C327.068 152.281 323.531 152.281 321.346 150.097L306.007 134.759C303.823 132.575 303.823 129.039 306.007 126.855L324.449 108.415C315.166 106.615 305.188 109.296 298.002 116.493C289.488 125.006 287.292 137.427 291.387 147.962L197.898 239.144C187.361 235.049 174.926 237.245 166.425 245.758C159.239 252.943 156.546 262.932 158.345 272.201L176.787 253.762C178.972 251.578 182.509 251.578 184.693 253.762L200.033 269.099C202.217 271.283 202.217 274.82 200.033 277.004L181.59 295.444C190.874 297.243 200.852 294.562 208.037 287.365C216.551 278.853 218.748 266.431 214.652 255.896Z" fill="white" stroke="#263238" stroke-width="1.23919" stroke-miterlimit="10"/>
<path d="M207.467 246.327C205.977 244.838 205.977 242.418 207.467 240.929L291.524 159.178C293.013 157.689 295.433 157.689 296.922 159.178C298.412 160.667 298.412 163.087 296.922 164.576L212.865 246.327C211.376 247.816 208.956 247.816 207.467 246.327Z" fill="white" stroke="#263238" stroke-width="1.23919" stroke-miterlimit="10"/>
<path d="M232.385 183.054L226.102 189.337L316.763 279.986L323.046 273.704L232.385 183.054Z" fill="white" stroke="#263238" stroke-width="1.23919" stroke-miterlimit="10"/>
<path d="M339.052 280.391L323.464 295.976L310.47 282.984C306.164 278.678 306.164 271.704 310.47 267.398C314.777 263.092 321.751 263.092 326.058 267.398L339.052 280.391Z" fill="white" stroke="#263238" stroke-width="1.23919" stroke-miterlimit="10"/>
<path d="M223.928 165.401L208.457 180.87L221.024 193.435L236.495 177.966L223.928 165.401Z" fill="white" stroke="#263238" stroke-width="1.23919" stroke-miterlimit="10"/>
<path d="M155.036 117.315L160.354 111.998C165.558 106.795 174.001 106.795 179.204 111.998L231.174 163.961C232.244 165.031 232.236 166.76 231.174 167.821L210.867 188.126C209.796 189.196 208.068 189.187 207.006 188.126L155.036 136.163C149.832 130.96 149.832 122.519 155.036 117.315Z" fill="white" stroke="#263238" stroke-width="1.23919" stroke-miterlimit="10"/>
<path d="M237.941 173.628L216.669 194.897C215.869 195.697 215.869 196.993 216.669 197.793L222.478 203.601C223.278 204.401 224.574 204.401 225.374 203.601L246.646 182.332C247.446 181.532 247.446 180.236 246.646 179.436L240.837 173.628C240.037 172.828 238.741 172.828 237.941 173.628Z" fill="white" stroke="#263238" stroke-width="1.23919" stroke-miterlimit="10"/>
<path d="M213.775 180.397L209.493 184.678L158.46 133.653C157.281 132.474 157.281 130.55 158.46 129.371C159.639 128.193 161.563 128.193 162.742 129.371L213.775 180.397Z" fill="white" stroke="#263238" stroke-width="1.23919" stroke-miterlimit="10"/>
<path d="M221.062 173.114L216.78 177.395L165.748 126.369C164.569 125.19 164.569 123.267 165.748 122.088C166.927 120.909 168.85 120.909 170.029 122.088L221.062 173.114Z" fill="white" stroke="#263238" stroke-width="1.23919" stroke-miterlimit="10"/>
<path d="M228.347 165.831L224.065 170.112L173.033 119.086C171.854 117.907 171.854 115.984 173.033 114.805C174.212 113.626 176.135 113.626 177.314 114.805L228.347 165.831Z" fill="white" stroke="#263238" stroke-width="1.23919" stroke-miterlimit="10"/>
<path d="M399.169 405.947H395.024L368.316 186.717H372.449L399.169 405.947Z" fill="white" stroke="#263238" stroke-width="1.23919" stroke-miterlimit="10"/>
<path d="M431.437 405.947H427.292L400.584 186.717H404.717L431.437 405.947Z" fill="white" stroke="#263238" stroke-width="1.23919" stroke-miterlimit="10"/>
<path d="M404.979 204.884H372.723L371.904 198.121H404.159L404.979 204.884Z" fill="white" stroke="#263238" stroke-width="1.23919" stroke-miterlimit="10"/>
<path d="M408.02 229.85H375.764L374.945 223.087H407.201L408.02 229.85Z" fill="white" stroke="#263238" stroke-width="1.23919" stroke-miterlimit="10"/>
<path d="M411.069 254.83H378.802L377.982 248.067H410.238L411.069 254.83Z" fill="white" stroke="#263238" stroke-width="1.23919" stroke-miterlimit="10"/>
<path d="M414.114 279.796H381.859L381.027 273.033H413.283L414.114 279.796Z" fill="white" stroke="#263238" stroke-width="1.23919" stroke-miterlimit="10"/>
<path d="M417.153 304.764H384.898L384.066 298.001H416.334L417.153 304.764Z" fill="white" stroke="#263238" stroke-width="1.23919" stroke-miterlimit="10"/>
<path d="M420.195 329.731H387.94L387.121 322.968H419.376L420.195 329.731Z" fill="white" stroke="#263238" stroke-width="1.23919" stroke-miterlimit="10"/>
<path d="M423.245 354.71H390.977L390.158 347.947H422.413L423.245 354.71Z" fill="white" stroke="#263238" stroke-width="1.23919" stroke-miterlimit="10"/>
<path d="M426.286 379.676H394.031L393.199 372.913H425.454L426.286 379.676Z" fill="white" stroke="#263238" stroke-width="1.23919" stroke-miterlimit="10"/>
<path d="M372.229 200.789H376.448" stroke="#263238" stroke-width="0.619595" stroke-miterlimit="10"/>
<path d="M373.221 202.763H381.412" stroke="#263238" stroke-width="0.619595" stroke-miterlimit="10"/>
<path d="M404.481 202.763H398.523" stroke="#263238" stroke-width="0.619595" stroke-miterlimit="10"/>
<path d="M407.463 226.823H402.002" stroke="#263238" stroke-width="0.619595" stroke-miterlimit="10"/>
<path d="M376.199 228.064H388.858" stroke="#263238" stroke-width="0.619595" stroke-miterlimit="10"/>
<path d="M378.436 251.38H389.357" stroke="#263238" stroke-width="0.619595" stroke-miterlimit="10"/>
<path d="M378.93 253.365H384.887" stroke="#263238" stroke-width="0.619595" stroke-miterlimit="10"/>
<path d="M413.915 275.938H407.213" stroke="#263238" stroke-width="0.619595" stroke-miterlimit="10"/>
<path d="M413.418 277.923H402.248" stroke="#263238" stroke-width="0.619595" stroke-miterlimit="10"/>
<path d="M423.147 352.166H412.908" stroke="#263238" stroke-width="0.619595" stroke-miterlimit="10"/>
<path d="M390.57 350.304H396.776" stroke="#263238" stroke-width="0.619595" stroke-miterlimit="10"/>
<path d="M411.358 352.166H403.291" stroke="#263238" stroke-width="0.619595" stroke-miterlimit="10"/>
<path d="M393.674 376.055H402.361" stroke="#263238" stroke-width="0.619595" stroke-miterlimit="10"/>
<path d="M395.535 378.226H405.464" stroke="#263238" stroke-width="0.619595" stroke-miterlimit="10"/>
<path d="M385.605 302.531H388.398" stroke="#263238" stroke-width="0.619595" stroke-miterlimit="10"/>
<path d="M416.012 301.909H405.773" stroke="#263238" stroke-width="0.619595" stroke-miterlimit="10"/>
<path d="M157.341 274.855L152.426 281.258L45.5332 197.808L50.4478 191.417L157.341 274.855Z" fill="#263238" stroke="#263238" stroke-width="1.36311" stroke-linecap="round" stroke-linejoin="round"/>
<path d="M45.5332 274.855L50.4478 281.258L157.341 197.808L152.426 191.417L45.5332 274.855Z" fill="#263238" stroke="#263238" stroke-width="1.36311" stroke-linecap="round" stroke-linejoin="round"/>
<path d="M157.341 368.594L154.3 376.846L45.5332 291.546L48.6359 283.22L157.341 368.594Z" fill="#263238" stroke="#263238" stroke-width="1.36311" stroke-linecap="round" stroke-linejoin="round"/>
<path d="M45.5332 368.595L46.2654 378.274L157.341 291.547L152.426 285.156L45.5332 368.595Z" fill="#263238" stroke="#263238" stroke-width="1.36311" stroke-linecap="round" stroke-linejoin="round"/>
<path d="M48.0371 190.525H43.6934V405.946H48.0371V190.525Z" fill="#263238" stroke="#263238" stroke-width="1.36311" stroke-linecap="round" stroke-linejoin="round"/>
<path d="M157.936 190.525H153.592V405.946H157.936V190.525Z" fill="#263238" stroke="#263238" stroke-width="1.36311" stroke-linecap="round" stroke-linejoin="round"/>
<path d="M136.431 274.855L131.504 281.258L24.6113 197.808L29.5259 191.417L136.431 274.855Z" fill="white" stroke="#263238" stroke-width="1.36311" stroke-linecap="round" stroke-linejoin="round"/>
<path d="M24.6113 274.855L29.5259 281.258L136.431 197.808L131.504 191.417L24.6113 274.855Z" fill="white" stroke="#263238" stroke-width="1.36311" stroke-linecap="round" stroke-linejoin="round"/>
<path d="M136.431 368.594L133.39 376.846L24.6113 291.546L26.1751 283.22L136.431 368.594Z" fill="white" stroke="#263238" stroke-width="1.36311" stroke-linecap="round" stroke-linejoin="round"/>
<path d="M24.6113 368.595L25.356 378.274L136.431 291.547L131.504 285.156L24.6113 368.595Z" fill="white" stroke="#263238" stroke-width="1.36311" stroke-linecap="round" stroke-linejoin="round"/>
<path d="M27.1152 190.525H22.7715V405.946H27.1152V190.525Z" fill="white" stroke="#263238" stroke-width="1.36311" stroke-linecap="round" stroke-linejoin="round"/>
<path d="M137.012 190.525H132.668V405.946H137.012V190.525Z" fill="white" stroke="#263238" stroke-width="1.36311" stroke-linecap="round" stroke-linejoin="round"/>
<path d="M142.609 188.526H17.1875V195.351H142.609V188.526Z" fill="white" stroke="#263238" stroke-width="1.36311" stroke-linecap="round" stroke-linejoin="round"/>
<path d="M161.945 188.526H127.133V195.351H161.945V188.526Z" fill="#263238" stroke="#263238" stroke-width="1.36311" stroke-linecap="round" stroke-linejoin="round"/>
<path d="M142.609 277.921H17.1875V284.746H142.609V277.921Z" fill="white" stroke="#263238" stroke-width="1.36311" stroke-linecap="round" stroke-linejoin="round"/>
<path d="M161.945 277.921H127.133V284.746H161.945V277.921Z" fill="#263238" stroke="#263238" stroke-width="1.36311" stroke-linecap="round" stroke-linejoin="round"/>
<path d="M298.897 405.948H289.08L302.173 329.235H312.003L298.897 405.948Z" fill="#263238" stroke="#263238" stroke-width="1.20201" stroke-miterlimit="10"/>
<path d="M318.542 405.948H328.372L315.278 329.235H305.449L318.542 405.948Z" fill="white" stroke="#263238" stroke-width="1.20201" stroke-miterlimit="10"/>
<path d="M438.293 405.946H428.477L441.57 329.233H451.399L438.293 405.946Z" fill="#263238" stroke="#263238" stroke-width="1.20201" stroke-miterlimit="10"/>
<path d="M457.939 405.946H467.768L454.675 329.233H444.846L457.939 405.946Z" fill="white" stroke="#263238" stroke-width="1.20201" stroke-miterlimit="10"/>
<path d="M464.814 307.07H277.451V333.092H464.814V307.07Z" fill="#D7282F" stroke="#263238" stroke-width="1.20201" stroke-miterlimit="10"/>
<path d="M469.383 307.07H282.02V333.092H469.383V307.07Z" fill="#D7282F" stroke="#263238" stroke-width="1.20201" stroke-miterlimit="10"/>
<path d="M285.086 333.08H300.984L309.2 307.07H293.302L285.086 333.08Z" fill="#263238"/>
<path d="M348.033 307.07H332.122L323.906 333.08H339.817L348.033 307.07Z" fill="#263238"/>
<path d="M464.507 307.07H448.597L440.381 333.08H456.291L464.507 307.07Z" fill="#263238"/>
<path d="M425.687 307.07H409.776L401.561 333.08H417.459L425.687 307.07Z" fill="#263238"/>
<path d="M386.854 307.07H370.956L362.74 333.08H378.638L386.854 307.07Z" fill="#263238"/>
<path d="M468.353 318.615H437.352" stroke="#263238" stroke-width="1.23919" stroke-miterlimit="10"/>
<path d="M467.808 322.957H462.918" stroke="#263238" stroke-width="1.23919" stroke-miterlimit="10"/>
<path d="M281.225 321.878H312.226" stroke="#263238" stroke-width="1.23919" stroke-miterlimit="10"/>
<path d="M281.771 316.977H320.927" stroke="#263238" stroke-width="1.23919" stroke-miterlimit="10"/>
</g>
<defs>
<clipPath id="clip0_458_1067">
<rect width="486" height="416" fill="white"/>
</clipPath>
</defs>
</svg>
