<svg width="520" height="456" viewBox="0 0 520 456" fill="none" xmlns="http://www.w3.org/2000/svg">
<g clip-path="url(#clip0_0_12151)">
<path d="M491.164 454.191H31.2238C31.2238 454.191 16.6447 429.487 6.54196 380.091C-3.5484 330.683 44.6776 348.654 57.0185 305.991C69.3594 263.328 15.5071 272.301 19.9958 213.919C24.4845 155.538 98.5176 154.412 134.415 162.271C170.313 170.13 165.824 143.186 207.335 98.2702C248.847 53.3546 311.664 57.8474 343.073 92.6511C374.482 127.455 364.391 163.385 403.652 163.385C442.913 163.385 478.811 171.244 502.367 246.471C525.924 321.697 482.867 356.08 483.646 389.98C484.425 423.88 491.152 454.191 491.152 454.191H491.164Z" fill="#D7282F"/>
<path opacity="0.7" d="M491.164 454.191H31.2238C31.2238 454.191 16.6447 429.487 6.54196 380.091C-3.5484 330.683 44.6776 348.654 57.0185 305.991C69.3594 263.328 15.5071 272.301 19.9958 213.919C24.4845 155.538 98.5176 154.412 134.415 162.271C170.313 170.13 165.824 143.186 207.335 98.2702C248.847 53.3546 311.664 57.8474 343.073 92.6511C374.482 127.455 364.391 163.385 403.652 163.385C442.913 163.385 478.811 171.244 502.367 246.471C525.924 321.697 482.867 356.08 483.646 389.98C484.425 423.88 491.152 454.191 491.152 454.191H491.164Z" fill="white"/>
<path d="M217.228 454.195C205.951 437.016 157.823 364.847 143.801 362.916C130.087 361.022 81.3543 434.021 68.1602 454.195H217.228Z" fill="#263238" stroke="#263238" stroke-linecap="round" stroke-linejoin="round"/>
<path d="M278.898 32.416V198.872" stroke="#263238" stroke-width="3" stroke-linecap="round" stroke-linejoin="round"/>
<path d="M298.656 36.8828V198.871" stroke="#263238" stroke-width="3" stroke-linecap="round" stroke-linejoin="round"/>
<path d="M320.32 125.528V282.43" stroke="#263238" stroke-width="3" stroke-linecap="round" stroke-linejoin="round"/>
<path d="M343.258 36.8828V282.427" stroke="#263238" stroke-width="3" stroke-linecap="round" stroke-linejoin="round"/>
<path d="M366.199 36.8828V203.339" stroke="#263238" stroke-width="3" stroke-linecap="round" stroke-linejoin="round"/>
<path d="M261.695 54.7422H366.84" stroke="#263238" stroke-width="3" stroke-linecap="round" stroke-linejoin="round"/>
<path d="M261.695 91.7285H375.719" stroke="#263238" stroke-width="3" stroke-linecap="round" stroke-linejoin="round"/>
<path d="M259.781 125.528H386.591" stroke="#263238" stroke-width="3" stroke-linecap="round" stroke-linejoin="round"/>
<path d="M257.875 163.167H386.589" stroke="#263238" stroke-width="3" stroke-linecap="round" stroke-linejoin="round"/>
<path d="M282.086 203.982H379.577" stroke="#263238" stroke-width="3" stroke-linecap="round" stroke-linejoin="round"/>
<path d="M307.574 243.527H371.294" stroke="#263238" stroke-width="3" stroke-linecap="round" stroke-linejoin="round"/>
<path d="M139.82 48.2354L162.313 65.8476" stroke="#263238" stroke-width="2" stroke-linecap="round" stroke-linejoin="round"/>
<path d="M184.805 29.6318L192.632 41.3775" stroke="#263238" stroke-width="2" stroke-linecap="round" stroke-linejoin="round"/>
<path d="M224.906 1.23828L231.757 22.774" stroke="#263238" stroke-width="2" stroke-linecap="round" stroke-linejoin="round"/>
<path d="M353.243 277.984H316.109V189.7H265.818V33.3555C198.092 34.0238 143.398 89.1627 143.398 157.112C143.398 178.004 148.58 197.695 157.718 214.961C161.749 224.355 171.233 247.363 180.718 277.117C189.473 304.582 194.06 332.194 194.06 336.378C194.06 336.786 194.06 337.207 194.036 337.653C193.875 342.888 198.042 347.232 203.273 347.232H330.961C336.191 347.232 340.358 342.888 340.198 337.653C340.185 337.207 340.173 336.786 340.173 336.378C340.173 332.244 344.662 305.176 353.243 278.009V277.984Z" fill="#D7282F" stroke="#263238" stroke-width="2" stroke-linecap="round" stroke-linejoin="round"/>
<path d="M223.91 53.2452C227.447 51.661 231.132 50.2253 234.916 49.0371" stroke="#263238" stroke-width="2" stroke-linecap="round" stroke-linejoin="round"/>
<path d="M182.734 84.6579C182.734 84.6579 192.812 68.6299 214.959 57.7383" stroke="#263238" stroke-width="2" stroke-linecap="round" stroke-linejoin="round"/>
<path d="M185.379 262.783C189.967 277.784 196.038 298.565 198.14 310.162C201.702 329.742 199.327 339.841 207.031 341.611" stroke="#263238" stroke-width="2" stroke-linecap="round" stroke-linejoin="round"/>
<path d="M179.766 244.888C179.766 244.888 181.076 248.91 182.993 255.074" stroke="#263238" stroke-width="2" stroke-linecap="round" stroke-linejoin="round"/>
<path d="M259.289 345.972V227.649C259.289 227.649 264.161 196.707 248.086 196.707C232.011 196.707 233.247 212.797 251.796 230.125C270.344 247.452 298.785 231.362 302.495 217.748C306.204 204.133 296.312 197.945 290.129 209.084C283.946 220.223 290.129 346.467 290.129 346.467" stroke="#263238" stroke-width="2" stroke-linecap="round" stroke-linejoin="round"/>
<path d="M334.184 346.451H200.746V377.443H334.184V346.451Z" fill="white" stroke="#263238" stroke-width="2" stroke-linecap="round" stroke-linejoin="round"/>
<path d="M334.184 384.82H200.746V415.812H334.184V384.82Z" fill="white" stroke="#263238" stroke-width="2" stroke-linecap="round" stroke-linejoin="round"/>
<path d="M334.184 377.444H200.746V384.821H334.184V377.444Z" fill="#263238" stroke="#263238" stroke-linecap="round" stroke-linejoin="round"/>
<path d="M334.184 423.198H200.746V454.19H334.184V423.198Z" fill="white" stroke="#263238" stroke-width="2" stroke-linecap="round" stroke-linejoin="round"/>
<path d="M320.227 373.296H330.144" stroke="#263238" stroke-linecap="round" stroke-linejoin="round"/>
<path d="M205.988 373.296H315.449" stroke="#263238" stroke-linecap="round" stroke-linejoin="round"/>
<path d="M294.5 412.282H326.465" stroke="#263238" stroke-linecap="round" stroke-linejoin="round"/>
<path d="M225.801 412.282H290.832" stroke="#263238" stroke-linecap="round" stroke-linejoin="round"/>
<path d="M215.148 412.282H220.651" stroke="#263238" stroke-linecap="round" stroke-linejoin="round"/>
<path d="M334.184 415.813H200.746V423.19H334.184V415.813Z" fill="#263238" stroke="#263238" stroke-linecap="round" stroke-linejoin="round"/>
<path d="M263.8 429.985H218.121V453.786H263.8V429.985Z" fill="#D7282F" stroke="#263238" stroke-linecap="round" stroke-linejoin="round"/>
<path d="M323.241 429.985H277.562V453.786H323.241V429.985Z" fill="#D7282F" stroke="#263238" stroke-linecap="round" stroke-linejoin="round"/>
<path d="M364.332 454.193C355.577 446.507 318.208 414.191 307.314 413.325C296.667 412.483 258.816 445.158 248.59 454.193H364.332Z" fill="#263238" stroke="#263238" stroke-linecap="round" stroke-linejoin="round"/>
<path d="M508.648 454.191H519.382" stroke="#263238" stroke-linecap="round" stroke-linejoin="round"/>
<path d="M17.3125 454.191H497.916" stroke="#263238" stroke-linecap="round" stroke-linejoin="round"/>
<path d="M0.621094 454.191H8.9679" stroke="#263238" stroke-linecap="round" stroke-linejoin="round"/>
<path d="M487.046 383.547H454.957V428.599H468.25H487.046H500.351V406.073L487.046 383.547Z" fill="#263238" stroke="#263238" stroke-linecap="round" stroke-linejoin="round"/>
<path d="M500.355 428.601H485.652V438.836H500.355V428.601Z" fill="white" stroke="#263238" stroke-linecap="round" stroke-linejoin="round"/>
<path d="M431.101 428.091C431.101 428.091 447.176 419.427 441.611 376.108L421.208 364.969L385.966 359.399L354.434 360.637V378.584C354.434 378.584 372.364 394.055 374.219 399.005C376.073 403.956 376.073 409.526 376.073 409.526V426.853L431.101 428.091Z" fill="#D7282F" stroke="#263238" stroke-linecap="round" stroke-linejoin="round"/>
<path d="M441.616 376.107L431.105 428.09" stroke="#263238" stroke-linecap="round" stroke-linejoin="round"/>
<path d="M421.216 364.972L409.469 428.094" stroke="#263238" stroke-linecap="round" stroke-linejoin="round"/>
<path d="M385.972 359.399L377.316 406.431" stroke="#263238" stroke-linecap="round" stroke-linejoin="round"/>
<path d="M355.676 376.107C355.676 376.107 376.079 384.771 384.117 390.341C392.154 395.91 390.918 407.668 390.918 407.668" stroke="#263238" stroke-linecap="round" stroke-linejoin="round"/>
<path d="M455.242 428.919H359.371V436.964H455.242V428.919Z" fill="white" stroke="#263238" stroke-linecap="round" stroke-linejoin="round"/>
<path d="M474.387 408.285H494.407L483.661 389.72H474.387V408.285Z" fill="white" stroke="#263238" stroke-linecap="round" stroke-linejoin="round"/>
<path d="M471.293 389.72H462.637V408.285H471.293V389.72Z" fill="white" stroke="#263238" stroke-linecap="round" stroke-linejoin="round"/>
<path d="M418.245 428.601H359.879V442.549H418.245V428.601Z" fill="white" stroke="#263238" stroke-linecap="round" stroke-linejoin="round"/>
<path d="M473.539 453.967C480.213 452.76 484.645 446.367 483.44 439.688C482.234 433.008 475.847 428.571 469.173 429.778C462.5 430.985 458.067 437.378 459.273 444.057C460.478 450.737 466.866 455.174 473.539 453.967Z" fill="#263238" stroke="#263238" stroke-linecap="round" stroke-linejoin="round"/>
<path d="M471.332 449.071C475.286 449.071 478.491 445.862 478.491 441.904C478.491 437.947 475.286 434.738 471.332 434.738C467.377 434.738 464.172 437.947 464.172 441.904C464.172 445.862 467.377 449.071 471.332 449.071Z" fill="white" stroke="#263238" stroke-linecap="round" stroke-linejoin="round"/>
<path d="M378.896 453.98C385.574 452.797 390.028 446.419 388.846 439.736C387.664 433.052 381.292 428.593 374.614 429.776C367.937 430.96 363.482 437.337 364.664 444.021C365.846 450.705 372.218 455.164 378.896 453.98Z" fill="#263238" stroke="#263238" stroke-linecap="round" stroke-linejoin="round"/>
<path d="M376.73 449.067C380.684 449.067 383.89 445.858 383.89 441.901C383.89 437.943 380.684 434.734 376.73 434.734C372.776 434.734 369.57 437.943 369.57 441.901C369.57 445.858 372.776 449.067 376.73 449.067Z" fill="white" stroke="#263238" stroke-linecap="round" stroke-linejoin="round"/>
<path d="M414.674 450.91C419.669 446.319 420 438.544 415.413 433.545C410.827 428.545 403.059 428.214 398.064 432.805C393.069 437.396 392.738 445.17 397.325 450.17C401.911 455.169 409.679 455.501 414.674 450.91Z" fill="#263238" stroke="#263238" stroke-linecap="round" stroke-linejoin="round"/>
<path d="M406.375 449.072C410.329 449.072 413.534 445.863 413.534 441.905C413.534 437.948 410.329 434.739 406.375 434.739C402.42 434.739 399.215 437.948 399.215 441.905C399.215 445.863 402.42 449.072 406.375 449.072Z" fill="white" stroke="#263238" stroke-linecap="round" stroke-linejoin="round"/>
<path d="M402.355 407.053H371.441C369.221 407.053 367.422 408.854 367.422 411.075V424.071C367.422 426.292 369.221 428.093 371.441 428.093H402.355C404.574 428.093 406.374 426.292 406.374 424.071V411.075C406.374 408.854 404.574 407.053 402.355 407.053Z" fill="#263238" stroke="#263238" stroke-linecap="round" stroke-linejoin="round"/>
<path d="M351.965 428.093V366.89H364.33V428.093" stroke="#263238" stroke-linecap="round" stroke-linejoin="round"/>
<path d="M352.051 375.006H364.194" stroke="#263238" stroke-linecap="round" stroke-linejoin="round"/>
<path d="M352.051 384.562H364.194" stroke="#263238" stroke-linecap="round" stroke-linejoin="round"/>
<path d="M352.051 394.116H364.194" stroke="#263238" stroke-linecap="round" stroke-linejoin="round"/>
<path d="M352.051 403.671H364.194" stroke="#263238" stroke-linecap="round" stroke-linejoin="round"/>
<path d="M352.051 413.227H364.194" stroke="#263238" stroke-linecap="round" stroke-linejoin="round"/>
<path d="M352.051 422.781H364.194" stroke="#263238" stroke-linecap="round" stroke-linejoin="round"/>
<path d="M104.653 455.381H82.3945V66.748L104.653 92.6528V455.381Z" stroke="#263238" stroke-linecap="round" stroke-linejoin="round"/>
<path d="M82.6055 373.694H104.431L82.6055 352.566H104.431L82.6055 373.694Z" stroke="#263238" stroke-linecap="round" stroke-linejoin="round"/>
<path d="M82.6055 352.035H104.431L82.6055 330.908H104.431L82.6055 352.035Z" stroke="#263238" stroke-linecap="round" stroke-linejoin="round"/>
<path d="M82.6055 330.373H104.431L82.6055 309.246H104.431L82.6055 330.373Z" stroke="#263238" stroke-linecap="round" stroke-linejoin="round"/>
<path d="M82.6055 308.715H104.431L82.6055 287.588H104.431L82.6055 308.715Z" stroke="#263238" stroke-linecap="round" stroke-linejoin="round"/>
<path d="M82.6055 287.057H104.431L82.6055 265.93H104.431L82.6055 287.057Z" stroke="#263238" stroke-linecap="round" stroke-linejoin="round"/>
<path d="M82.6055 265.399H104.431L82.6055 244.271H104.431L82.6055 265.399Z" stroke="#263238" stroke-linecap="round" stroke-linejoin="round"/>
<path d="M82.6055 243.737H104.431L82.6055 222.609H104.431L82.6055 243.737Z" stroke="#263238" stroke-linecap="round" stroke-linejoin="round"/>
<path d="M82.6055 222.075H104.431L82.6055 200.947H104.431L82.6055 222.075Z" stroke="#263238" stroke-linecap="round" stroke-linejoin="round"/>
<path d="M82.6055 200.416H104.431L82.6055 179.289H104.431L82.6055 200.416Z" stroke="#263238" stroke-linecap="round" stroke-linejoin="round"/>
<path d="M82.6055 178.758H104.431L82.6055 157.631H104.431L82.6055 178.758Z" stroke="#263238" stroke-linecap="round" stroke-linejoin="round"/>
<path d="M82.6055 157.1H104.431L82.6055 135.973H104.431L82.6055 157.1Z" stroke="#263238" stroke-linecap="round" stroke-linejoin="round"/>
<path d="M82.6055 135.442H104.431L82.6055 114.314H104.431L82.6055 135.442Z" stroke="#263238" stroke-linecap="round" stroke-linejoin="round"/>
<path d="M82.6055 113.781H104.431L82.6055 92.6533H104.431L82.6055 113.781Z" stroke="#263238" stroke-linecap="round" stroke-linejoin="round"/>
<path d="M207.98 114.362L197.197 107.567H120.246L110.848 114.362H207.98Z" stroke="#263238" stroke-linecap="round" stroke-linejoin="round"/>
<path d="M209.759 113.78H21.8008V118.731H209.759V113.78Z" fill="#263238" stroke="#263238" stroke-linecap="round" stroke-linejoin="round"/>
<path d="M197.197 107.567L82.3945 66.748L120.246 107.567" stroke="#263238" stroke-linecap="round" stroke-linejoin="round"/>
<path d="M82.3924 66.748L21.8008 113.78" stroke="#263238" stroke-linecap="round" stroke-linejoin="round"/>
<path d="M120.727 124.303H74.3555V154.007H120.727V124.303Z" fill="#263238" stroke="#263238" stroke-linecap="round" stroke-linejoin="round"/>
<path d="M111.055 130.491H84.0117V139.155H111.055V130.491Z" fill="white" stroke="#263238" stroke-linecap="round" stroke-linejoin="round"/>
<path d="M209.758 118.73V172.112" stroke="#263238" stroke-linecap="round" stroke-linejoin="round"/>
<path d="M216.805 190.335H203.066V205.917H216.805V190.335Z" fill="#263238" stroke="#263238" stroke-linecap="round" stroke-linejoin="round"/>
<path d="M203.066 190.333L209.942 171.087L216.817 190.333" stroke="#263238" stroke-linecap="round" stroke-linejoin="round"/>
<path d="M172.701 378.385L202.453 425.33L209.909 419.896L188.071 376.194C186.068 372.184 181.975 369.646 177.499 369.646C173.022 369.646 170.302 374.597 172.701 378.372V378.385Z" fill="#D7282F" stroke="#263238" stroke-linecap="round" stroke-linejoin="round"/>
<path d="M207.187 413.784L176.656 435.518C176.656 435.518 179.364 447.066 197.01 446.385C214.644 445.704 213.976 427.374 213.976 427.374L207.187 413.797V413.784Z" fill="#263238" stroke="white" stroke-linecap="round" stroke-linejoin="round"/>
<path d="M122.383 399.524L177.682 374.584C181.441 372.889 185.868 374.052 188.304 377.369C191.21 381.33 190.307 386.899 186.276 389.721L125.771 432.112L122.383 399.524Z" fill="#D7282F" stroke="#263238" stroke-linecap="round" stroke-linejoin="round"/>
<path d="M114.247 430.083H57.2539V438.908H114.247V430.083Z" fill="white" stroke="#263238" stroke-linecap="round" stroke-linejoin="round"/>
<path d="M86.4228 404.957H36.8984V425.329H86.4228V404.957Z" fill="#263238" stroke="#263238" stroke-linecap="round" stroke-linejoin="round"/>
<path d="M79.9838 381.875H122.052C124.117 381.875 125.786 383.546 125.786 385.613V425.342H76.2617V385.613C76.2617 383.546 77.9311 381.875 79.9961 381.875H79.9838Z" fill="#D7282F" stroke="#263238" stroke-linecap="round" stroke-linejoin="round"/>
<path d="M36.3926 454.194H117.462C122.804 454.194 127.132 449.862 127.132 444.516C127.132 439.169 122.804 434.837 117.462 434.837H36.3926C31.0506 434.837 26.7227 439.169 26.7227 444.516C26.7227 449.862 31.0506 454.194 36.3926 454.194Z" fill="#263238" stroke="#263238" stroke-linecap="round" stroke-linejoin="round"/>
<path d="M48.6074 454.194H129.677C135.019 454.194 139.347 449.862 139.347 444.516C139.347 439.169 135.019 434.837 129.677 434.837H48.6074C43.2655 434.837 38.9375 439.169 38.9375 444.516C38.9375 449.862 43.2655 454.194 48.6074 454.194Z" fill="white" stroke="#263238" stroke-linecap="round" stroke-linejoin="round"/>
<path d="M125.77 425.329H36.8984V432.124H125.77V425.329Z" fill="white" stroke="#263238" stroke-linecap="round" stroke-linejoin="round"/>
<path d="M55.2251 444.514C55.2251 447.892 52.4923 450.628 49.1164 450.628C45.7406 450.628 43.0078 447.892 43.0078 444.514C43.0078 441.135 45.7406 438.399 49.1164 438.399C52.4923 438.399 55.2251 441.135 55.2251 444.514Z" fill="#263238" stroke="#263238" stroke-linecap="round" stroke-linejoin="round"/>
<path d="M65.4016 450.628C68.7753 450.628 71.5102 447.89 71.5102 444.514C71.5102 441.137 68.7753 438.399 65.4016 438.399C62.0279 438.399 59.293 441.137 59.293 444.514C59.293 447.89 62.0279 450.628 65.4016 450.628Z" fill="#263238" stroke="#263238" stroke-linecap="round" stroke-linejoin="round"/>
<path d="M81.675 450.628C85.0487 450.628 87.7837 447.89 87.7837 444.514C87.7837 441.137 85.0487 438.399 81.675 438.399C78.3013 438.399 75.5664 441.137 75.5664 444.514C75.5664 447.89 78.3013 450.628 81.675 450.628Z" fill="#263238" stroke="#263238" stroke-linecap="round" stroke-linejoin="round"/>
<path d="M104.069 444.514C104.069 447.892 101.336 450.628 97.9602 450.628C94.5844 450.628 91.8516 447.892 91.8516 444.514C91.8516 441.135 94.5844 438.399 97.9602 438.399C101.336 438.399 104.069 441.135 104.069 444.514Z" fill="#263238" stroke="#263238" stroke-linecap="round" stroke-linejoin="round"/>
<path d="M120.354 444.514C120.354 447.892 117.621 450.628 114.245 450.628C110.87 450.628 108.137 447.892 108.137 444.514C108.137 441.135 110.87 438.399 114.245 438.399C117.621 438.399 120.354 441.135 120.354 444.514Z" fill="#263238" stroke="#263238" stroke-linecap="round" stroke-linejoin="round"/>
<path d="M136.627 444.514C136.627 447.892 133.895 450.628 130.519 450.628C127.143 450.628 124.41 447.892 124.41 444.514C124.41 441.135 127.143 438.399 130.519 438.399C133.895 438.399 136.627 441.135 136.627 444.514Z" fill="#263238" stroke="#263238" stroke-linecap="round" stroke-linejoin="round"/>
<path d="M184.124 381.874C184.124 380.005 182.603 378.482 180.736 378.482C178.869 378.482 177.348 380.005 177.348 381.874C177.348 383.743 178.869 385.265 180.736 385.265C182.603 385.265 184.124 383.743 184.124 381.874Z" fill="#263238" stroke="#263238" stroke-linecap="round" stroke-linejoin="round"/>
<path d="M118.315 387.298H82.3555V409.032H118.315V387.298Z" fill="white" stroke="#263238" stroke-linecap="round" stroke-linejoin="round"/>
<path d="M118.318 387.298H98.6445V409.032H118.318V387.298Z" fill="white" stroke="#263238" stroke-linecap="round" stroke-linejoin="round"/>
</g>
<defs>
<clipPath id="clip0_0_12151">
<rect width="520" height="456" fill="white"/>
</clipPath>
</defs>
</svg>
