<svg width="190" height="190" viewBox="0 0 190 190" fill="none" xmlns="http://www.w3.org/2000/svg">
<rect width="190" height="190" rx="15" fill="#F2F3F7"/>
<path d="M88.5002 97.1667C88.5002 93.5768 91.4103 90.6667 95.0002 90.6667C98.59 90.6667 101.5 93.5768 101.5 97.1667C101.5 100.757 98.59 103.667 95.0002 103.667C91.4103 103.667 88.5002 100.757 88.5002 97.1667Z" fill="#BABABA"/>
<path fill-rule="evenodd" clip-rule="evenodd" d="M91.6375 75.5C91.1963 75.4998 90.8108 75.4996 90.4386 75.5423C88.5153 75.7626 86.7903 76.8287 85.7331 78.4505C85.5285 78.7643 85.3563 79.1092 85.1592 79.5039L85.1178 79.5867C85.0543 79.7137 85.0215 79.779 84.9966 79.8262L84.9936 79.832L84.9871 79.8321C84.9337 79.8333 84.8607 79.8334 84.7186 79.8334L82.35 79.8334C81.2078 79.8333 80.2225 79.8333 79.4109 79.8996C78.5544 79.9696 77.7024 80.1241 76.8826 80.5418C75.6595 81.165 74.6651 82.1594 74.042 83.3825C73.6242 84.2023 73.4697 85.0542 73.3997 85.9108C73.3334 86.7224 73.3335 87.7077 73.3335 88.8498V105.484C73.3335 106.626 73.3334 107.611 73.3997 108.423C73.4697 109.279 73.6242 110.131 74.042 110.951C74.6651 112.174 75.6595 113.168 76.8826 113.792C77.7024 114.209 78.5544 114.364 79.4109 114.434C80.2225 114.5 81.2078 114.5 82.3499 114.5H107.65C108.793 114.5 109.778 114.5 110.589 114.434C111.446 114.364 112.298 114.209 113.118 113.792C114.341 113.168 115.335 112.174 115.958 110.951C116.376 110.131 116.531 109.279 116.601 108.423C116.667 107.611 116.667 106.626 116.667 105.484V88.8498C116.667 87.7077 116.667 86.7224 116.601 85.9108C116.531 85.0542 116.376 84.2023 115.958 83.3825C115.335 82.1594 114.341 81.165 113.118 80.5418C112.298 80.1241 111.446 79.9696 110.589 79.8996C109.778 79.8333 108.793 79.8333 107.65 79.8334L105.282 79.8334C105.14 79.8334 105.067 79.8333 105.013 79.8321L105.007 79.832L105.004 79.8263C104.979 79.779 104.946 79.7138 104.883 79.5867L104.841 79.504C104.644 79.1093 104.472 78.7643 104.267 78.4505C103.21 76.8287 101.485 75.7626 99.5617 75.5423C99.1895 75.4996 98.804 75.4998 98.3628 75.5H91.6375ZM95.0002 86.3333C89.0171 86.3333 84.1668 91.1836 84.1668 97.1667C84.1668 103.15 89.0171 108 95.0002 108C100.983 108 105.833 103.15 105.833 97.1667C105.833 91.1836 100.983 86.3333 95.0002 86.3333Z" fill="#BABABA"/>
</svg>
