<svg width="16" height="15" viewBox="0 0 16 15" fill="none" xmlns="http://www.w3.org/2000/svg">
<path d="M8.53101 0.650396C8.19775 0.470701 7.79644 0.470701 7.46317 0.650396C7.15378 0.817217 7.01535 1.12129 6.95655 1.25333C6.88399 1.41629 6.80998 1.6293 6.73146 1.85525L5.6085 5.08587L2.18897 5.15555C1.94983 5.1604 1.72438 5.16497 1.54697 5.18362C1.40322 5.19873 1.07126 5.23643 0.816994 5.47913C0.54311 5.74056 0.4191 6.12222 0.487014 6.4947C0.550062 6.8405 0.79647 7.06613 0.903884 7.16285C1.03645 7.28221 1.21616 7.41843 1.40678 7.56292L4.13227 9.62924L3.14186 12.9029C3.07257 13.1319 3.00724 13.3477 2.97016 13.5222C2.94011 13.6636 2.87338 13.9909 3.02563 14.3078C3.18963 14.649 3.51429 14.8849 3.88953 14.9354C4.23789 14.9823 4.52861 14.8177 4.65379 14.7454C4.80827 14.6562 4.99333 14.5274 5.18964 14.3908L7.99709 12.4372L10.8046 14.3908C11.0009 14.5274 11.1859 14.6562 11.3404 14.7454C11.4656 14.8177 11.7563 14.9823 12.1047 14.9354C12.4799 14.8849 12.8046 14.649 12.9686 14.3078C13.1208 13.9909 13.0541 13.6636 13.024 13.5222C12.9869 13.3477 12.9216 13.1318 12.8523 12.9029L11.8619 9.62924L14.5874 7.56294C14.778 7.41844 14.9577 7.28222 15.0903 7.16285C15.1977 7.06613 15.4441 6.8405 15.5072 6.4947C15.5751 6.12222 15.4511 5.74056 15.1772 5.47913C14.9229 5.23643 14.591 5.19873 14.4472 5.18362C14.2698 5.16497 14.0444 5.1604 13.8052 5.15555L10.3857 5.08587L9.26273 1.85525C9.18421 1.6293 9.1102 1.41629 9.03764 1.25333C8.97884 1.12129 8.84041 0.817216 8.53101 0.650396Z" fill="black"/>
</svg>
