<svg width="62" height="62" viewBox="0 0 62 62" fill="none" xmlns="http://www.w3.org/2000/svg">
<path fill-rule="evenodd" clip-rule="evenodd" d="M30.9939 62C48.1181 62 62 48.1208 62 31C62 13.8812 48.1214 0.00326854 31 0C13.8786 0.00326854 0 13.8812 0 31C0 35.9446 1.15985 40.6266 3.22569 44.7817C3.23765 44.8134 3.24926 44.8452 3.26052 44.8772C8.35302 55.0307 18.8594 62 30.9939 62ZM42.5292 22.6497C43.717 23.883 43.68 25.8454 42.4465 27.033L29.567 39.433C28.3663 40.589 26.4663 40.589 25.2656 39.433L19.5414 33.9219C18.3079 32.7343 18.2709 30.7719 19.4587 29.5386C20.6465 28.3054 22.6094 28.2683 23.8428 29.4559L27.4163 32.8964L38.1451 22.567C39.3785 21.3794 41.3414 21.4165 42.5292 22.6497Z" fill="#85E0A3"/>
</svg>
