<svg width="24" height="24" viewBox="0 0 24 24" fill="none" xmlns="http://www.w3.org/2000/svg">
<path d="M10.6829 2.70708C11.535 2.41021 12.4624 2.41014 13.3145 2.70689C13.8677 2.89952 14.3239 3.24039 14.7696 3.65822C15.2006 4.06229 15.6878 4.60354 16.2808 5.2623L18 7.17227V4.99983C18 4.44755 18.4477 3.99983 19 3.99983C19.5523 3.99983 20 4.44755 20 4.99983V9.39416L21.7433 11.3308C22.1127 11.7413 22.0795 12.3736 21.669 12.7431C21.2585 13.1126 20.6263 13.0793 20.2568 12.6689L20 12.3836V16.2412C20 17.0461 20 17.7105 19.9558 18.2517C19.9099 18.8138 19.8113 19.3305 19.564 19.8158C19.1805 20.5684 18.5686 21.1804 17.816 21.5639C17.3306 21.8112 16.8139 21.9097 16.2518 21.9556C15.7106 21.9999 15.0463 21.9998 14.2413 21.9998H14V17.5998C14 17.0397 14 16.7597 13.891 16.5458C13.7951 16.3576 13.6422 16.2046 13.454 16.1087C13.2401 15.9998 12.9601 15.9998 12.4 15.9998H11.6C11.0399 15.9998 10.7599 15.9998 10.546 16.1087C10.3578 16.2046 10.2049 16.3576 10.109 16.5458C10 16.7597 10 17.0397 10 17.5998V21.9998H9.75869C8.95373 21.9998 8.28937 21.9999 7.74818 21.9556C7.18609 21.9097 6.66938 21.8112 6.18405 21.5639C5.4314 21.1804 4.81948 20.5684 4.43598 19.8158C4.18869 19.3305 4.09013 18.8138 4.0442 18.2517C3.99998 17.7105 4 17.0461 4.00001 16.2411L4.00001 12.3835L3.74335 12.6687C3.37392 13.0793 2.74164 13.1126 2.3311 12.7432C1.92056 12.3737 1.88724 11.7415 2.25667 11.3309L7.71707 5.26291C8.30993 4.60406 8.79701 4.06276 9.22797 3.65863C9.67361 3.24074 10.1298 2.8998 10.6829 2.70708Z" fill="#3E3E3E"/>
</svg>
