<svg width="40" height="40" viewBox="0 0 40 40" fill="none" xmlns="http://www.w3.org/2000/svg">
<path fill-rule="evenodd" clip-rule="evenodd" d="M18.6139 5.74217C18.923 5.2785 19.4434 5 20.0007 5H35.0007C35.9211 5 36.6673 5.74619 36.6673 6.66667C36.6673 7.58714 35.9211 8.33333 35.0007 8.33333H20.8926L14.7207 17.5912C14.4116 18.0548 13.8912 18.3333 13.334 18.3333H5.00065C4.08018 18.3333 3.33398 17.5871 3.33398 16.6667C3.33398 15.7462 4.08018 15 5.00065 15H12.442L18.6139 5.74217ZM16.4482 25H35.0007C35.9211 25 36.6673 24.2538 36.6673 23.3333C36.6673 22.4129 35.9211 21.6667 35.0007 21.6667C25.0007 21.6667 15.0007 21.6667 5.00065 21.6667C4.08018 21.6667 3.33398 22.4129 3.33398 23.3333C3.33398 24.2538 4.08018 25 5.00065 25H12.442L18.6139 34.2578C18.923 34.7215 19.4434 35 20.0007 35H35.0007C35.9211 35 36.6673 34.2538 36.6673 33.3333C36.6673 32.4129 35.9211 31.6667 35.0007 31.6667H20.8926L16.4482 25Z" fill="#D7282F"/>
</svg>
