<svg width="40" height="40" viewBox="0 0 40 40" fill="none" xmlns="http://www.w3.org/2000/svg">
<path fill-rule="evenodd" clip-rule="evenodd" d="M18.334 3.33203C10.0497 3.33203 3.33398 10.0478 3.33398 18.332C3.33398 26.6163 10.0497 33.332 18.334 33.332C21.8771 33.332 25.1333 32.1036 27.6999 30.0494L33.8216 36.1767C34.4722 36.8278 35.5275 36.8283 36.1786 36.1777C36.8298 35.5272 36.8303 34.4719 36.1797 33.8207L30.0563 27.6918C32.1075 25.1261 33.334 21.8723 33.334 18.332C33.334 10.0478 26.6183 3.33203 18.334 3.33203ZM18.334 8.33203C17.4135 8.33203 16.6673 9.07822 16.6673 9.9987C16.6673 10.9192 17.4135 11.6654 18.334 11.6654C22.0159 11.6654 25.0007 14.6501 25.0007 18.332C25.0007 19.2525 25.7468 19.9987 26.6673 19.9987C27.5878 19.9987 28.334 19.2525 28.334 18.332C28.334 12.8092 23.8568 8.33203 18.334 8.33203Z" fill="#D7282F"/>
</svg>
