<svg width="40" height="40" viewBox="0 0 40 40" fill="none" xmlns="http://www.w3.org/2000/svg">
<path d="M24.9993 13.3333C29.6017 13.3333 33.3327 11.4679 33.3327 9.16667C33.3327 6.86548 29.6017 5 24.9993 5C20.397 5 16.666 6.86548 16.666 9.16667C16.666 9.48309 16.7366 9.79127 16.8702 10.0875C18.8942 10.2788 20.8012 10.7816 22.3826 11.5723C23.1844 11.9732 24.0897 12.5542 24.8608 13.3328C24.9069 13.3331 24.9531 13.3333 24.9993 13.3333Z" fill="#D7282F"/>
<path d="M26.666 19.9167V17.5C26.666 16.5453 26.4354 15.7039 26.0617 14.9695C28.1628 14.8481 30.1073 14.3686 31.6373 13.6037C32.2273 13.3087 32.8163 12.9364 33.3327 12.4862V15.8334C33.3327 17.8492 30.4697 19.5306 26.666 19.9167Z" fill="#D7282F"/>
<path d="M26.666 21.591V26.5833C30.4697 26.1973 33.3327 24.5158 33.3327 22.5V19.1528C32.8163 19.6031 32.2273 19.9753 31.6373 20.2703C30.2551 20.9614 28.5346 21.4195 26.666 21.591Z" fill="#D7282F"/>
<path d="M14.9993 21.6667C19.6017 21.6667 23.3327 19.8012 23.3327 17.5C23.3327 15.1988 19.6017 13.3333 14.9993 13.3333C10.397 13.3333 6.66602 15.1988 6.66602 17.5C6.66602 19.8012 10.397 21.6667 14.9993 21.6667Z" fill="#D7282F"/>
<path d="M14.9993 23.3334C17.5032 23.3334 19.8524 22.8295 21.6373 21.937C22.2273 21.642 22.8163 21.2698 23.3327 20.8195V24.1667C23.3327 26.4679 19.6017 28.3334 14.9993 28.3334C10.397 28.3334 6.66602 26.4679 6.66602 24.1667V20.8195C7.18239 21.2698 7.7714 21.642 8.36144 21.937C10.1463 22.8295 12.4955 23.3334 14.9993 23.3334Z" fill="#D7282F"/>
<path d="M21.6373 28.6037C19.8524 29.4961 17.5032 30 14.9993 30C12.4955 30 10.1463 29.4961 8.36144 28.6037C7.7714 28.3087 7.18239 27.9364 6.66602 27.4862V30.8334C6.66602 33.1345 10.397 35 14.9993 35C19.6017 35 23.3327 33.1345 23.3327 30.8334V27.4862C22.8163 27.9364 22.2273 28.3087 21.6373 28.6037Z" fill="#D7282F"/>
</svg>
