<svg width="40" height="40" viewBox="0 0 40 40" fill="none" xmlns="http://www.w3.org/2000/svg">
<path d="M8.87895 6.06208C8.33398 7.13164 8.33398 8.53177 8.33398 11.332V12.3588C9.35475 11.9128 10.4821 11.6654 11.6673 11.6654C12.9464 11.6654 14.1582 11.9536 15.2413 12.4685C15.3094 12.3563 15.3919 12.2504 15.4888 12.1535C16.1397 11.5026 17.195 11.5026 17.8458 12.1535L21.6673 15.975L25.977 11.6654H25.0007C24.0802 11.6654 23.334 10.9192 23.334 9.9987C23.334 9.07822 24.0802 8.33203 25.0007 8.33203H30.0007C30.9211 8.33203 31.6673 9.07822 31.6673 9.9987V14.9987C31.6673 15.9192 30.9211 16.6654 30.0007 16.6654C29.0802 16.6654 28.334 15.9192 28.334 14.9987V14.0224L22.8458 19.5105C22.195 20.1614 21.1397 20.1614 20.4888 19.5105L19.9363 18.958C19.9788 19.299 20.0007 19.6463 20.0007 19.9987C20.0007 21.7728 19.4463 23.4174 18.5013 24.7688C19.9452 25.642 21.1504 26.87 21.9962 28.332H28.6673C31.4676 28.332 32.8677 28.332 33.9373 27.7871C34.8781 27.3077 35.643 26.5428 36.1224 25.602C36.6673 24.5324 36.6673 23.1323 36.6673 20.332V11.332C36.6673 8.53177 36.6673 7.13164 36.1224 6.06208C35.643 5.12127 34.8781 4.35637 33.9373 3.877C32.8677 3.33203 31.4676 3.33203 28.6673 3.33203H16.334C13.5337 3.33203 12.1336 3.33203 11.064 3.877C10.1232 4.35637 9.35832 5.12127 8.87895 6.06208Z" fill="#D7282F"/>
<path d="M16.6673 19.9987C16.6673 22.7601 14.4287 24.9987 11.6673 24.9987C8.90589 24.9987 6.66732 22.7601 6.66732 19.9987C6.66732 17.2373 8.90589 14.9987 11.6673 14.9987C14.4287 14.9987 16.6673 17.2373 16.6673 19.9987Z" fill="#D7282F"/>
<path d="M3.33398 34.6654C3.33398 33.4267 3.33398 32.8074 3.41606 32.2891C3.86787 29.4365 6.10514 27.1993 8.95775 26.7474C9.47597 26.6654 10.0953 26.6654 11.334 26.6654H12.0007C13.2393 26.6654 13.8587 26.6654 14.3769 26.7474C17.2295 27.1993 19.4668 29.4365 19.9186 32.2891C20.0007 32.8074 20.0007 33.4267 20.0007 34.6654C20.0007 34.975 20.0007 35.1299 19.9801 35.2594C19.8672 35.9726 19.3079 36.5319 18.5947 36.6448C18.4652 36.6654 18.3103 36.6654 18.0007 36.6654H5.33398C5.02432 36.6654 4.86948 36.6654 4.73993 36.6448C4.02677 36.5319 3.46746 35.9726 3.3545 35.2594C3.33398 35.1299 3.33398 34.975 3.33398 34.6654Z" fill="#D7282F"/>
</svg>
